<?xml version="1.0" standalone="no"?>
<!DOCTYPE svg PUBLIC "-//W3C//DTD SVG 20010904//EN"
 "http://www.w3.org/TR/2001/REC-SVG-20010904/DTD/svg10.dtd">
<svg version="1.0" xmlns="http://www.w3.org/2000/svg"
 width="512.000000pt" height="512.000000pt" viewBox="0 0 512.000000 512.000000"
 preserveAspectRatio="xMidYMid meet">

<g transform="translate(0.000000,512.000000) scale(0.100000,-0.100000)"
fill="#000000" stroke="none">
<path d="M1650 3654 c-269 -30 -489 -173 -604 -393 l-34 -66 170 -100 c94 -55
186 -108 204 -117 l32 -18 30 53 c115 204 391 236 483 56 13 -27 19 -59 19
-107 0 -61 -5 -79 -40 -148 -47 -94 -116 -172 -564 -634 l-315 -325 0 -172 -1
-173 720 0 720 0 0 230 0 230 -357 0 -356 0 234 238 c257 259 332 357 389 503
43 112 53 162 53 274 0 169 -45 301 -145 424 -88 109 -247 201 -398 229 -66
13 -192 21 -240 16z"/>
<path d="M2670 3385 l0 -225 380 0 c209 0 380 -2 380 -5 0 -3 -84 -111 -186
-240 l-186 -236 92 -138 91 -139 107 -4 c92 -3 114 -8 159 -31 157 -81 159
-317 2 -397 -19 -10 -63 -24 -98 -30 -167 -30 -319 41 -377 178 -8 17 -17 32
-21 32 -3 0 -97 -53 -209 -117 l-202 -117 28 -56 c41 -79 61 -106 129 -175
145 -146 336 -217 586 -217 242 1 423 70 570 217 121 121 177 249 191 436 18
265 -121 489 -381 611 l-64 30 107 136 c60 75 140 178 180 229 l72 91 0 196 0
196 -675 0 -675 0 0 -225z"/>
</g>
</svg>
